HIERARCHY
ROOT Hips
{
	OFFSET 54.159698 -5.384886 95.845703
	CHANNELS 6 Xposition Yposition Zposition Xrotation Yrotation Zrotation
	JOINT spine
	{
		OFFSET 0.000000 -0.467660 8.132492
		CHANNELS 3 Xrotation Yrotation Zrotation
		JOINT spine1
		{
			OFFSET 0.000000 -0.000001 10.349800
			CHANNELS 3 Xrotation Yrotation Zrotation
			JOINT spine2
			{
				OFFSET 0.000000 -0.000001 9.916992
				CHANNELS 3 Xrotation Yrotation Zrotation
				JOINT Neck
				{
					OFFSET 0.000000 -1.213904 25.461006
					CHANNELS 3 Xrotation Yrotation Zrotation
					JOINT Head
					{
						OFFSET 0.000000 -0.000001 7.692444
						CHANNELS 3 Xrotation Yrotation Zrotation
						End Site
						{
							OFFSET 0.000000 6.140627 18.619995
						}
					}
				}
				JOINT RightShoulder
				{
					OFFSET -4.175751 0.581443 10.709602
					CHANNELS 3 Xrotation Yrotation Zrotation
					JOINT RightArm
					{
						OFFSET 0.000000 -0.000002 14.046600
						CHANNELS 3 Xrotation Yrotation Zrotation
						JOINT RightArmRoll
						{
							OFFSET 0.000000 -0.000001 7.090973
							CHANNELS 3 Xrotation Yrotation Zrotation
							JOINT RightForeArm
							{
								OFFSET 0.000000 -0.000003 20.653503
								CHANNELS 3 Xrotation Yrotation Zrotation
								JOINT RightForeArmRoll
								{
									OFFSET 0.000000 -0.000001 7.957184
									CHANNELS 3 Xrotation Yrotation Zrotation
									JOINT RightHand
									{
										OFFSET 0.000000 -0.000003 15.968292
										CHANNELS 3 Xrotation Yrotation Zrotation
										End Site
										{
											OFFSET 0.000000 0.000000 0.100006
										}
									}
								}
							}
						}
					}
				}
				JOINT LeftShoulder
				{
					OFFSET 4.175751 0.581443 10.709602
					CHANNELS 3 Xrotation Yrotation Zrotation
					JOINT LeftArm
					{
						OFFSET 0.000000 -0.000002 14.046600
						CHANNELS 3 Xrotation Yrotation Zrotation
						JOINT LeftArmRoll
						{
							OFFSET 0.000000 -0.000001 7.090973
							CHANNELS 3 Xrotation Yrotation Zrotation
							JOINT LeftForeArm
							{
								OFFSET 0.000000 -0.000003 20.653503
								CHANNELS 3 Xrotation Yrotation Zrotation
								JOINT LeftForeArmRoll
								{
									OFFSET 0.000000 -0.000001 7.957184
									CHANNELS 3 Xrotation Yrotation Zrotation
									JOINT LeftHand
									{
										OFFSET 0.000000 -0.000003 15.968292
										CHANNELS 3 Xrotation Yrotation Zrotation
										End Site
										{
											OFFSET 0.000000 0.000000 0.100006
										}
									}
								}
							}
						}
					}
				}
			}
		}
	}
	JOINT RightUpLeg
	{
		OFFSET -7.208340 1.108840 -1.321823
		CHANNELS 3 Xrotation Yrotation Zrotation
		JOINT RightUpLegRoll
		{
			OFFSET 0.000000 -0.000003 18.723801
			CHANNELS 3 Xrotation Yrotation Zrotation
			JOINT RightLeg
			{
				OFFSET 0.000000 0.000004 -23.186600
				CHANNELS 3 Xrotation Yrotation Zrotation
				JOINT RightLegRoll
				{
					OFFSET 0.000000 -0.000004 23.262398
					CHANNELS 3 Xrotation Yrotation Zrotation
					JOINT RightFoot
					{
						OFFSET 0.000000 -0.000003 19.362099
						CHANNELS 3 Xrotation Yrotation Zrotation
						JOINT RightToeBase
						{
							OFFSET 0.000000 -0.000003 16.185699
							CHANNELS 3 Xrotation Yrotation Zrotation
							End Site
							{
								OFFSET 0.006859 0.903521 7.838623
							}
						}
					}
				}
			}
		}
	}
	JOINT LeftUpLeg
	{
		OFFSET 7.208340 1.108840 -1.321823
		CHANNELS 3 Xrotation Yrotation Zrotation
		JOINT LeftUpLegRoll
		{
			OFFSET 0.000000 -0.000003 18.723900
			CHANNELS 3 Xrotation Yrotation Zrotation
			JOINT LeftLeg
			{
				OFFSET 0.000000 -0.000004 23.186501
				CHANNELS 3 Xrotation Yrotation Zrotation
				JOINT LeftLegRoll
				{
					OFFSET 0.000000 -0.000004 23.477493
					CHANNELS 3 Xrotation Yrotation Zrotation
					JOINT LeftFoot
					{
						OFFSET 0.000000 -0.000003 19.147003
						CHANNELS 3 Xrotation Yrotation Zrotation
						JOINT LeftToeBase
						{
							OFFSET 0.000000 -0.000003 16.185699
							CHANNELS 3 Xrotation Yrotation Zrotation
							End Site
							{
								OFFSET -0.030746 0.903521 7.838623
							}
						}
					}
				}
			}
		}
	}
}
MOTION
Frames: 13
Frame Time: 0.041667
52.325905 -2.592414 96.056396 -5.089538 1.336521 -2.238645 -0.650483 -0.497684 0.094872 2.702777 -0.981220 0.185491 4.347936 -0.979176 0.197398 9.603891 4.518621 -4.894025 2.438145 -4.793565 -4.688883 -17.772697 -56.340656 -20.987339 -42.611095 -121.798720 -22.440300 0.000003 -0.000001 -0.000003 0.066394 -8.023094 -0.642869 -0.000000 -0.000008 -3.008789 -5.000212 -7.998993 0.000132 -13.309498 61.851140 15.826313 -48.857805 117.911864 38.454416 0.000002 0.000013 0.000012 0.075880 8.857153 1.182059 0.000001 0.000018 3.061280 -5.000253 7.998890 -0.000135 -3.469492 -173.546760 2.775694 -179.999991 0.000004 -0.973994 166.820882 -0.916223 -0.694530 0.000000 -0.000003 0.126467 69.992411 6.288243 3.655597 25.460310 -7.346096 0.004827 -0.142753 175.131023 -1.073924 -0.000020 -0.000004 -0.990542 -13.345710 1.718387 0.771299 -0.000006 0.000002 -0.154672 72.166966 -6.047366 -4.310741 25.462817 7.347455 -0.000559 
52.335205 -2.592902 96.056900 -5.084109 1.332150 -2.248922 -0.653764 -0.496637 0.093403 2.696184 -0.980151 0.182778 4.341354 -0.978123 0.194660 9.669004 4.522002 -4.888996 2.380630 -4.789861 -4.683962 -17.736190 -56.355536 -20.943539 -42.624093 -121.785101 -22.462056 0.000002 -0.000001 -0.000003 0.066396 -8.031295 -0.642899 0.000000 -0.000008 -3.008790 -5.000211 -7.998992 0.000135 -13.341601 61.858346 15.863912 -48.856709 117.900690 38.463479 0.000002 0.000014 0.000012 0.075883 8.868312 1.182815 0.000002 0.000018 3.061279 -5.000251 7.998890 -0.000135 -3.479304 -173.531843 2.781906 -179.999991 0.000005 -0.973993 166.813478 -0.919109 -0.694334 0.000000 -0.000002 0.126549 69.994324 6.287596 3.658275 25.460305 -7.346095 0.004826 -0.145548 175.143017 -1.067277 -0.000020 -0.000004 -0.990759 -13.348420 1.719263 0.771410 -0.000005 0.000002 -0.155421 72.173421 -6.048008 -4.306194 25.462814 7.347455 -0.000559 
52.347904 -2.595233 96.054893 -5.078586 1.327639 -2.259242 -0.657202 -0.495545 0.091866 2.689293 -0.979033 0.179936 4.334462 -0.977021 0.191794 9.737083 4.525554 -4.884006 2.320579 -4.786210 -4.679043 -17.697816 -56.371286 -20.897519 -42.636947 -121.771413 -22.483589 0.000001 -0.000001 -0.000002 0.066393 -8.039636 -0.642938 0.000001 -0.000008 -3.008788 -5.000214 -7.998992 0.000132 -13.375672 61.865736 15.903810 -48.855633 117.889530 38.472325 0.000002 0.000013 0.000012 0.075882 8.879544 1.183530 0.000001 0.000019 3.061279 -5.000251 7.998890 -0.000134 -3.489717 -173.517937 2.788156 -179.999991 0.000005 -0.973994 166.805159 -0.921033 -0.694925 0.000000 -0.000003 0.126670 69.996557 6.287001 3.660843 25.460309 -7.346095 0.004826 -0.148386 175.155010 -1.060537 -0.000020 -0.000004 -0.990951 -13.350926 1.720150 0.771533 -0.000004 0.000002 -0.156180 72.179622 -6.048530 -4.301937 25.462815 7.347454 -0.000559 
52.344902 -2.600957 96.055710 -5.072987 1.323019 -2.269603 -0.660746 -0.494425 0.090281 2.682191 -0.977880 0.177006 4.327359 -0.975883 0.188837 9.807236 4.529225 -4.879048 2.258742 -4.782616 -4.674109 -17.658109 -56.387620 -20.849895 -42.651854 -121.756195 -22.507382 0.000004 -0.000000 -0.000002 0.066395 -8.048064 -0.642987 -0.000002 -0.000008 -3.008791 -5.000211 -7.998992 0.000132 -13.411219 61.873488 15.945425 -48.854233 117.878219 38.480715 0.000001 0.000013 0.000011 0.075883 8.890811 1.184204 0.000003 0.000018 3.061280 -5.000250 7.998890 -0.000135 -3.500533 -173.504044 2.794406 -179.999991 0.000006 -0.973994 166.796457 -0.923912 -0.694750 0.000000 -0.000003 0.126817 69.999030 6.286486 3.663313 25.460302 -7.346095 0.004826 -0.151252 175.167031 -1.053727 -0.000021 -0.000004 -0.991125 -13.353234 1.721057 0.771666 -0.000006 0.000002 -0.156945 72.185688 -6.048958 -4.297877 25.462815 7.347454 -0.000559 
52.346806 -2.609386 96.052307 -5.067344 1.318348 -2.279978 -0.664350 -0.493286 0.088669 2.674959 -0.976706 0.174025 4.320136 -0.974726 0.185829 9.878577 4.532971 -4.874119 2.195890 -4.779054 -4.669185 -17.617566 -56.404177 -20.801297 -42.665531 -121.741674 -22.529671 0.000004 -0.000001 -0.000004 0.066396 -8.056564 -0.643044 0.000002 -0.000009 -3.008791 -5.000214 -7.998991 0.000135 -13.447517 61.881268 15.987936 -48.852846 117.866908 38.488997 -0.000001 0.000011 0.000011 0.075881 8.902113 1.184849 0.000000 0.000019 3.061279 -5.000249 7.998889 -0.000136 -3.511597 -173.489141 2.800571 -179.999991 0.000006 -0.973993 166.787332 -0.925832 -0.694360 -0.000000 -0.000002 0.126982 70.001796 6.285920 3.665756 25.460309 -7.346094 0.004827 -0.154134 175.179012 -1.046876 -0.000020 -0.000004 -0.991289 -13.355441 1.721966 0.771800 -0.000005 0.000002 -0.157715 72.191630 -6.049326 -4.294014 25.462815 7.347455 -0.000559 
52.364803 -2.613543 96.052902 -5.061704 1.313659 -2.290364 -0.667971 -0.492143 0.087051 2.667706 -0.975526 0.171031 4.312873 -0.973563 0.182809 9.950221 4.536753 -4.869204 2.132777 -4.775514 -4.664250 -17.576840 -56.420836 -20.752461 -42.680329 -121.726388 -22.553278 0.000003 0.000000 -0.000003 0.066395 -8.065063 -0.643102 -0.000001 -0.000008 -3.008789 -5.000209 -7.998992 0.000134 -13.484064 61.889102 16.030731 -48.851453 117.855597 38.497245 -0.000001 0.000013 0.000012 0.075877 8.913423 1.185506 -0.000001 0.000018 3.061280 -5.000253 7.998890 -0.000135 -3.522717 -173.475235 2.806806 -179.999991 0.000005 -0.973994 166.778234 -0.927740 -0.693966 -0.000000 -0.000003 0.127150 70.004480 6.285416 3.668215 25.460310 -7.346092 0.004827 -0.157020 175.191019 -1.040016 -0.000020 -0.000004 -0.991451 -13.357649 1.722875 0.771937 -0.000005 0.000002 -0.158486 72.197558 -6.049689 -4.290149 25.462817 7.347454 -0.000559 
52.366203 -2.617075 96.055206 -5.056070 1.308998 -2.300736 -0.671557 -0.491008 0.085447 2.660505 -0.974356 0.168064 4.305681 -0.972410 0.179814 10.021283 4.540524 -4.864313 2.070168 -4.771987 -4.659319 -17.536434 -56.437331 -20.704018 -42.694044 -121.711854 -22.575604 0.000003 -0.000001 -0.000004 0.066394 -8.073542 -0.643156 -0.000000 -0.000008 -3.008789 -5.000212 -7.998991 0.000131 -13.520168 61.896779 16.073008 -48.851501 117.843644 38.507182 0.000001 0.000013 0.000012 0.075881 8.924713 1.186160 -0.000001 0.000018 3.061281 -5.000251 7.998889 -0.000135 -3.533720 -173.460345 2.812966 -179.999991 0.000005 -0.973994 166.769218 -0.930631 -0.694799 -0.000000 -0.000003 0.127311 70.007158 6.284874 3.670669 25.460312 -7.346095 0.004827 -0.159896 175.203027 -1.033179 -0.000020 -0.000004 -0.991618 -13.359855 1.723783 0.772071 -0.000005 0.000002 -0.159255 72.203535 -6.050113 -4.286094 25.462815 7.347455 -0.000559 
52.375603 -2.622655 96.048302 -5.050493 1.304398 -2.311082 -0.675071 -0.489895 0.083876 2.653463 -0.973209 0.165160 4.298638 -0.971279 0.176885 10.090851 4.544247 -4.859413 2.008834 -4.768440 -4.654382 -17.496856 -56.453279 -20.656596 -42.709016 -121.696650 -22.599556 0.000003 -0.000001 -0.000003 0.066394 -8.081945 -0.643204 0.000000 -0.000008 -3.008787 -5.000217 -7.998992 0.000132 -13.555349 61.904334 16.114204 -48.850104 117.832320 38.515611 0.000000 0.000012 0.000012 0.075880 8.935971 1.186845 -0.000004 0.000018 3.061280 -5.000253 7.998889 -0.000135 -3.544429 -173.446439 2.819186 -179.999991 0.000005 -0.973994 166.760612 -0.932540 -0.694384 -0.000000 -0.000003 0.127453 70.009623 6.284325 3.673132 25.460310 -7.346094 0.004826 -0.162754 175.215020 -1.026384 -0.000020 -0.000004 -0.991797 -13.362162 1.724681 0.772197 -0.000006 0.000002 -0.160019 72.209614 -6.050565 -4.282034 25.462817 7.347455 -0.000559 
52.386505 -2.618704 96.044701 -5.045003 1.299916 -2.321383 -0.678462 -0.488817 0.082360 2.646661 -0.972101 0.162359 4.291836 -0.970187 0.174058 10.158021 4.547858 -4.854509 1.949530 -4.764883 -4.649437 -17.458816 -56.468685 -20.611003 -42.721949 -121.682989 -22.621161 0.000004 -0.000002 -0.000002 0.066393 -8.090246 -0.643241 -0.000000 -0.000008 -3.008791 -5.000214 -7.998992 0.000132 -13.588920 61.911642 16.153534 -48.847590 117.821815 38.522895 0.000002 0.000012 0.000013 0.075880 8.947184 1.187570 -0.000001 0.000018 3.061279 -5.000248 7.998889 -0.000136 -3.554672 -173.431549 2.825354 -179.999991 0.000005 -0.973994 166.752607 -0.935434 -0.694207 0.000000 -0.000002 0.127561 70.011748 6.283727 3.675705 25.460312 -7.346096 0.004827 -0.165581 175.227028 -1.019683 -0.000020 -0.000004 -0.991997 -13.364772 1.725568 0.772320 -0.000005 0.000002 -0.160775 72.215836 -6.051141 -4.277686 25.462821 7.347454 -0.000559 
52.397102 -2.625525 96.050201 -5.039614 1.295584 -2.331628 -0.681686 -0.487785 0.080919 2.640199 -0.971048 0.159699 4.285374 -0.969148 0.171374 10.221975 4.551320 -4.849585 1.893026 -4.761272 -4.644497 -17.422783 -56.483171 -20.567834 -42.734253 -121.670230 -22.642082 0.000001 -0.000001 -0.000005 0.066399 -8.098395 -0.643264 0.000001 -0.000009 -3.008792 -5.000210 -7.998991 0.000132 -13.620333 61.918540 16.190328 -48.846658 117.810723 38.532188 -0.000000 0.000012 0.000012 0.075882 8.958312 1.188355 -0.000000 0.000018 3.061280 -5.000254 7.998890 -0.000134 -3.564256 -173.417656 2.831593 -179.999991 0.000005 -0.973994 166.745490 -0.937348 -0.693783 0.000001 -0.000002 0.127627 70.013435 6.283074 3.678392 25.460309 -7.346096 0.004827 -0.168359 175.238024 -1.013093 -0.000020 -0.000004 -0.992224 -13.367579 1.726442 0.772429 -0.000006 0.000002 -0.161520 72.222407 -6.051801 -4.273135 25.462817 7.347455 -0.000559 
52.401203 -2.637575 96.051308 -5.034362 1.291450 -2.341802 -0.684693 -0.486814 0.079573 2.634168 -0.970063 0.157219 4.279342 -0.968177 0.168871 10.281819 4.554589 -4.844649 1.840083 -4.757595 -4.639552 -17.389349 -56.496460 -20.527770 -42.745759 -121.658360 -22.662253 0.000003 -0.000001 -0.000003 0.066391 -8.106344 -0.643268 -0.000000 -0.000008 -3.008790 -5.000211 -7.998992 0.000132 -13.648932 61.925015 16.223837 -48.844452 117.800355 38.540357 0.000001 0.000012 0.000012 0.075884 8.969363 1.189211 -0.000003 0.000019 3.061280 -5.000250 7.998890 -0.000135 -3.573003 -173.403736 2.837844 -179.999991 0.000005 -0.973994 166.739384 -0.940250 -0.694572 0.000000 -0.000002 0.127637 70.014480 6.282351 3.681309 25.460309 -7.346096 0.004827 -0.171087 175.250018 -1.006643 -0.000021 -0.000004 -0.992487 -13.370886 1.727295 0.772529 -0.000005 0.000002 -0.162250 72.229162 -6.052702 -4.268111 25.462817 7.347456 -0.000559 
52.401207 -2.640784 96.073502 -5.029293 1.287555 -2.351889 -0.687441 -0.485917 0.078343 2.628656 -0.969162 0.154956 4.273830 -0.967287 0.166587 10.336541 4.557608 -4.839656 1.791445 -4.753855 -4.634596 -17.359127 -56.508457 -20.491560 -42.756492 -121.647308 -22.681825 0.000003 -0.000001 -0.000003 0.066391 -8.114064 -0.643246 -0.000002 -0.000009 -3.008791 -5.000214 -7.998992 0.000132 -13.674178 61.930903 16.253419 -48.841255 117.790847 38.547720 0.000001 0.000012 0.000013 0.075882 8.980293 1.190156 0.000002 0.000018 3.061280 -5.000254 7.998889 -0.000135 -3.580746 -173.390813 2.844158 -179.999991 0.000006 -0.973993 166.734671 -0.942173 -0.694110 0.000000 -0.000002 0.127579 70.014951 6.281501 3.684330 25.460309 -7.346094 0.004825 -0.173744 175.261029 -1.000376 -0.000020 -0.000004 -0.992793 -13.374594 1.728114 0.772607 -0.000006 0.000002 -0.162964 72.236395 -6.053783 -4.262689 25.462817 7.347456 -0.000559 
52.403103 -2.642964 96.066910 -5.024415 1.283949 -2.361867 -0.689883 -0.485107 0.077247 2.623755 -0.968361 0.152949 4.268928 -0.966496 0.164561 10.385342 4.560344 -4.834612 1.747896 -4.750008 -4.629638 -17.332614 -56.518794 -20.459804 -42.765754 -121.638074 -22.699729 0.000004 -0.000001 -0.000005 0.066393 -8.121516 -0.643201 -0.000000 -0.000009 -3.008792 -5.000210 -7.998992 0.000135 -13.695369 61.936087 16.278263 -48.838373 117.781490 38.555848 0.000001 0.000013 0.000012 0.075883 8.991092 1.191212 0.000001 0.000019 3.061281 -5.000251 7.998889 -0.000135 -3.587310 -173.376880 2.850442 -179.999991 0.000005 -0.973994 166.731461 -0.945085 -0.693854 -0.000000 -0.000003 0.127442 70.014582 6.280605 3.687493 25.460305 -7.346095 0.004827 -0.176322 175.272025 -0.994306 -0.000020 -0.000004 -0.993150 -13.378803 1.728912 0.772668 -0.000005 0.000002 -0.163657 72.244038 -6.055104 -4.256781 25.462812 7.347455 -0.000559 
